<svg width="373" height="258" viewBox="0 0 373 258" fill="none" xmlns="http://www.w3.org/2000/svg">
<path d="M118.792 12.1127C118.792 5.42303 124.238 0 130.955 0H360.837C367.554 0 373 5.42303 373 12.1127V189.765C373 196.455 367.554 201.878 360.837 201.878H130.955C124.238 201.878 118.792 196.455 118.792 189.765V12.1127Z" fill="#357AFF"/>
<path d="M118.792 59.7559C87.2867 59.7559 57.0714 73.1129 34.7935 96.8887C12.5156 120.664 2.75432e-06 152.911 0 186.535L118.792 186.535V59.7559Z" fill="#7FACF0"/>
<path d="M0 184.784H347.971C361.794 184.784 373 195.991 373 209.817C373 216.506 367.554 221.929 360.837 221.929H12.163C5.44558 221.929 0 216.506 0 209.817V184.784Z" fill="#F2F2F3"/>
<path d="M130.55 223.681C130.55 242.635 115.121 258 96.088 258C77.0552 258 61.6261 242.635 61.6261 223.681C61.6261 204.727 77.0552 189.361 96.088 189.361C115.121 189.361 130.55 204.727 130.55 223.681Z" fill="#357AFF"/>
<path d="M112.305 223.277C112.305 232.197 105.045 239.427 96.088 239.427C87.1314 239.427 79.8707 232.197 79.8707 223.277C79.8707 214.357 87.1314 207.127 96.088 207.127C105.045 207.127 112.305 214.357 112.305 223.277Z" fill="#7FACF0"/>
<path d="M321.915 223.681C321.915 242.635 306.486 258 287.453 258C268.42 258 252.991 242.635 252.991 223.681C252.991 204.727 268.42 189.361 287.453 189.361C306.486 189.361 321.915 204.727 321.915 223.681Z" fill="#357AFF"/>
<path d="M303.671 223.681C303.671 232.6 296.41 239.831 287.453 239.831C278.497 239.831 271.236 232.6 271.236 223.681C271.236 214.761 278.497 207.531 287.453 207.531C296.41 207.531 303.671 214.761 303.671 223.681Z" fill="#7FACF0"/>
<path d="M348.598 184.784H373V209.189H348.598V184.784Z" fill="#F1F2F3"/>
</svg>
