<svg width="17" height="10" viewBox="0 0 17 10" fill="none" xmlns="http://www.w3.org/2000/svg">
<path fill-rule="evenodd" clip-rule="evenodd" d="M8.58784 8.80504C8.19581 9.19405 7.55469 9.19972 7.15584 8.81769C7.15373 8.81567 7.15164 8.81364 7.14955 8.81161C7.04001 8.70488 6.92953 8.59601 6.82071 8.48855C6.82012 8.48796 6.81953 8.48738 6.81895 8.4868L0.290447 2.00853C-0.101583 1.61952 -0.0960597 0.994466 0.302783 0.612441C0.701625 0.230416 1.34275 0.236081 1.73478 0.625095L7.15938 6.00795C7.54927 6.39484 8.17823 6.39484 8.56812 6.00795L14.3249 0.295507C14.7169 -0.0935066 15.358 -0.0991714 15.7569 0.282854C16.1557 0.664879 16.1612 1.28993 15.7692 1.67894L8.58784 8.80504Z"/>
</svg>
