<svg width="13" height="15" viewBox="0 0 13 15" fill="none" xmlns="http://www.w3.org/2000/svg">
<line x1="0.5" y1="-0.5" x2="5.5" y2="-0.5" transform="matrix(-0.653984 -0.756508 0.76174 -0.647882 12.924 14.5391)" stroke="#357AFF" stroke-linecap="round"/>
<path fill-rule="evenodd" clip-rule="evenodd" d="M5.78279 11.9185C8.97654 11.9185 11.5656 9.25041 11.5656 5.95923C11.5656 2.66804 8.97654 0 5.78279 0C2.58904 0 0 2.66804 0 5.95923C0 9.25041 2.58904 11.9185 5.78279 11.9185ZM5.7828 10.835C8.39587 10.835 10.5142 8.65202 10.5142 5.95923C10.5142 3.26643 8.39587 1.0835 5.7828 1.0835C3.16973 1.0835 1.05142 3.26643 1.05142 5.95923C1.05142 8.65202 3.16973 10.835 5.7828 10.835Z" fill="#357AFF"/>
</svg>
